<svg width="28" height="28" viewBox="0 0 28 28" fill="none" xmlns="http://www.w3.org/2000/svg">
<g clip-path="url(#clip0_11_405)">
<path fill-rule="evenodd" clip-rule="evenodd" d="M22.8472 16.8556L18.4306 14.8766L18.4184 14.8709C17.9526 14.6717 17.4177 14.7211 16.9963 15.0022C16.9718 15.0183 16.9483 15.0359 16.9259 15.0547L14.6441 17C13.1984 16.2978 11.7059 14.8166 11.0037 13.3897L12.9519 11.0731C12.9706 11.0497 12.9884 11.0262 13.0053 11.0009C13.2803 10.5807 13.3268 10.0507 13.1291 9.58906V9.57781L11.1444 5.15375C10.8801 4.5439 10.246 4.18069 9.58625 4.26125C6.95833 4.60705 4.99525 6.84943 5 9.5C5 16.9438 11.0562 23 18.5 23C21.1506 23.0048 23.3929 21.0417 23.7388 18.4137C23.8195 17.7542 23.4567 17.1202 22.8472 16.8556ZM18.5 21.5C11.8756 21.4928 6.50723 16.1244 6.5 9.5C6.4927 7.60618 7.89195 6.00108 9.76906 5.75C9.76869 5.75374 9.76869 5.75751 9.76906 5.76125L11.7378 10.1675L9.8 12.4869C9.78033 12.5095 9.76246 12.5336 9.74656 12.5591C9.45961 12.9994 9.42405 13.5578 9.65281 14.0309C10.5022 15.7681 12.2525 17.5053 14.0084 18.3538C14.4851 18.5804 15.0459 18.5398 15.485 18.2469C15.5091 18.2307 15.5322 18.2131 15.5544 18.1944L17.8334 16.25L22.2397 18.2234C22.2397 18.2234 22.2472 18.2234 22.25 18.2234C22.002 20.1033 20.3962 21.5064 18.5 21.5Z" fill="#141C24"/>
</g>
<defs>
<clipPath id="clip0_11_405">
<rect width="24" height="24" fill="white" transform="translate(2 2)"/>
</clipPath>
</defs>
</svg>
